M48
; DRILL file {KiCad (6.0.1)} date Wed Dec 28 21:20:50 2022
; FORMAT={-:-/ absolute / metric / decimal}
; #@! TF.CreationDate,2022-12-28T21:20:50+01:00
; #@! TF.GenerationSoftware,Kicad,Pcbnew,(6.0.1)
; #@! TF.FileFunction,Plated,1,2,PTH
FMAT,2
METRIC
; #@! TA.AperFunction,Plated,PTH,ComponentDrill
T1C0.700
; #@! TA.AperFunction,Plated,PTH,ComponentDrill
T2C0.750
; #@! TA.AperFunction,Plated,PTH,ComponentDrill
T3C0.800
; #@! TA.AperFunction,Plated,PTH,ComponentDrill
T4C0.900
; #@! TA.AperFunction,Plated,PTH,ComponentDrill
T5C1.000
; #@! TA.AperFunction,Plated,PTH,ComponentDrill
T6C1.100
; #@! TA.AperFunction,Plated,PTH,ComponentDrill
T7C2.500
%
G90
G05
T1
X124.46Y-81.28
X129.54Y-81.28
X132.08Y-86.36
X137.16Y-86.36
X144.78Y-73.66
X144.78Y-78.74
T2
X106.68Y-84.73
X107.95Y-84.73
X109.22Y-84.73
T3
X99.1Y-85.09
X101.6Y-85.09
X110.5Y-71.13
X110.5Y-73.67
X110.5Y-76.21
X110.5Y-78.75
X118.12Y-71.13
X118.12Y-73.67
X118.12Y-76.21
X118.12Y-78.75
X119.38Y-85.09
X119.38Y-87.59
X152.4Y-74.93
X152.4Y-77.43
T4
X96.52Y-80.01
X106.68Y-80.01
X142.24Y-68.58
X144.82Y-83.765
X147.32Y-86.265
X149.82Y-83.765
X152.4Y-68.58
T5
X101.6Y-68.58
X101.6Y-72.38
T6
X134.62Y-79.685
X137.16Y-79.685
X139.7Y-79.685
T7
X91.44Y-72.3
X91.44Y-80.1
X160.02Y-72.3
X160.02Y-80.1
T0
M30
