%TF.GenerationSoftware,KiCad,Pcbnew,(6.0.1)*%
%TF.CreationDate,2022-12-28T21:20:28+01:00*%
%TF.ProjectId,nixie_power_supply,6e697869-655f-4706-9f77-65725f737570,rev?*%
%TF.SameCoordinates,Original*%
%TF.FileFunction,Legend,Top*%
%TF.FilePolarity,Positive*%
%FSLAX46Y46*%
G04 Gerber Fmt 4.6, Leading zero omitted, Abs format (unit mm)*
G04 Created by KiCad (PCBNEW (6.0.1)) date 2022-12-28 21:20:28*
%MOMM*%
%LPD*%
G01*
G04 APERTURE LIST*
G04 Aperture macros list*
%AMRoundRect*
0 Rectangle with rounded corners*
0 $1 Rounding radius*
0 $2 $3 $4 $5 $6 $7 $8 $9 X,Y pos of 4 corners*
0 Add a 4 corners polygon primitive as box body*
4,1,4,$2,$3,$4,$5,$6,$7,$8,$9,$2,$3,0*
0 Add four circle primitives for the rounded corners*
1,1,$1+$1,$2,$3*
1,1,$1+$1,$4,$5*
1,1,$1+$1,$6,$7*
1,1,$1+$1,$8,$9*
0 Add four rect primitives between the rounded corners*
20,1,$1+$1,$2,$3,$4,$5,0*
20,1,$1+$1,$4,$5,$6,$7,0*
20,1,$1+$1,$6,$7,$8,$9,0*
20,1,$1+$1,$8,$9,$2,$3,0*%
G04 Aperture macros list end*
%ADD10C,0.150000*%
%ADD11C,0.120000*%
%ADD12R,1.600000X1.600000*%
%ADD13O,1.600000X1.600000*%
%ADD14C,1.620000*%
%ADD15C,1.400000*%
%ADD16O,1.400000X1.400000*%
%ADD17RoundRect,0.250000X-0.400000X-0.625000X0.400000X-0.625000X0.400000X0.625000X-0.400000X0.625000X0*%
%ADD18R,1.050000X1.500000*%
%ADD19O,1.050000X1.500000*%
%ADD20R,1.905000X2.000000*%
%ADD21O,1.905000X2.000000*%
%ADD22R,3.000000X2.900000*%
%ADD23RoundRect,0.250002X-1.699998X1.699998X-1.699998X-1.699998X1.699998X-1.699998X1.699998X1.699998X0*%
%ADD24C,3.900000*%
%ADD25RoundRect,0.250002X1.699998X-1.699998X1.699998X1.699998X-1.699998X1.699998X-1.699998X-1.699998X0*%
%ADD26R,1.800000X1.800000*%
%ADD27O,1.800000X1.800000*%
%ADD28C,1.600000*%
%ADD29R,2.000000X2.000000*%
%ADD30C,2.000000*%
G04 APERTURE END LIST*
D10*
%TO.C,U1*%
X108559695Y-66533780D02*
X108559695Y-67343304D01*
X108607314Y-67438542D01*
X108654933Y-67486161D01*
X108750171Y-67533780D01*
X108940647Y-67533780D01*
X109035885Y-67486161D01*
X109083504Y-67438542D01*
X109131123Y-67343304D01*
X109131123Y-66533780D01*
X110131123Y-67533780D02*
X109559695Y-67533780D01*
X109845409Y-67533780D02*
X109845409Y-66533780D01*
X109750171Y-66676638D01*
X109654933Y-66771876D01*
X109559695Y-66819495D01*
%TO.C,RV1*%
X147252380Y-82890238D02*
X146776190Y-83223571D01*
X147252380Y-83461666D02*
X146252380Y-83461666D01*
X146252380Y-83080714D01*
X146300000Y-82985476D01*
X146347619Y-82937857D01*
X146442857Y-82890238D01*
X146585714Y-82890238D01*
X146680952Y-82937857D01*
X146728571Y-82985476D01*
X146776190Y-83080714D01*
X146776190Y-83461666D01*
X146252380Y-82604523D02*
X147252380Y-82271190D01*
X146252380Y-81937857D01*
X147252380Y-81080714D02*
X147252380Y-81652142D01*
X147252380Y-81366428D02*
X146252380Y-81366428D01*
X146395238Y-81461666D01*
X146490476Y-81556904D01*
X146538095Y-81652142D01*
%TO.C,R5*%
X140507980Y-74842666D02*
X140031790Y-75176000D01*
X140507980Y-75414095D02*
X139507980Y-75414095D01*
X139507980Y-75033142D01*
X139555600Y-74937904D01*
X139603219Y-74890285D01*
X139698457Y-74842666D01*
X139841314Y-74842666D01*
X139936552Y-74890285D01*
X139984171Y-74937904D01*
X140031790Y-75033142D01*
X140031790Y-75414095D01*
X139507980Y-73937904D02*
X139507980Y-74414095D01*
X139984171Y-74461714D01*
X139936552Y-74414095D01*
X139888933Y-74318857D01*
X139888933Y-74080761D01*
X139936552Y-73985523D01*
X139984171Y-73937904D01*
X140079409Y-73890285D01*
X140317504Y-73890285D01*
X140412742Y-73937904D01*
X140460361Y-73985523D01*
X140507980Y-74080761D01*
X140507980Y-74318857D01*
X140460361Y-74414095D01*
X140412742Y-74461714D01*
%TO.C,R3*%
X134453333Y-88732380D02*
X134120000Y-88256190D01*
X133881904Y-88732380D02*
X133881904Y-87732380D01*
X134262857Y-87732380D01*
X134358095Y-87780000D01*
X134405714Y-87827619D01*
X134453333Y-87922857D01*
X134453333Y-88065714D01*
X134405714Y-88160952D01*
X134358095Y-88208571D01*
X134262857Y-88256190D01*
X133881904Y-88256190D01*
X134786666Y-87732380D02*
X135405714Y-87732380D01*
X135072380Y-88113333D01*
X135215238Y-88113333D01*
X135310476Y-88160952D01*
X135358095Y-88208571D01*
X135405714Y-88303809D01*
X135405714Y-88541904D01*
X135358095Y-88637142D01*
X135310476Y-88684761D01*
X135215238Y-88732380D01*
X134929523Y-88732380D01*
X134834285Y-88684761D01*
X134786666Y-88637142D01*
%TO.C,R2*%
X126833333Y-79812380D02*
X126500000Y-79336190D01*
X126261904Y-79812380D02*
X126261904Y-78812380D01*
X126642857Y-78812380D01*
X126738095Y-78860000D01*
X126785714Y-78907619D01*
X126833333Y-79002857D01*
X126833333Y-79145714D01*
X126785714Y-79240952D01*
X126738095Y-79288571D01*
X126642857Y-79336190D01*
X126261904Y-79336190D01*
X127214285Y-78907619D02*
X127261904Y-78860000D01*
X127357142Y-78812380D01*
X127595238Y-78812380D01*
X127690476Y-78860000D01*
X127738095Y-78907619D01*
X127785714Y-79002857D01*
X127785714Y-79098095D01*
X127738095Y-79240952D01*
X127166666Y-79812380D01*
X127785714Y-79812380D01*
%TO.C,R1*%
X114133333Y-65942380D02*
X113800000Y-65466190D01*
X113561904Y-65942380D02*
X113561904Y-64942380D01*
X113942857Y-64942380D01*
X114038095Y-64990000D01*
X114085714Y-65037619D01*
X114133333Y-65132857D01*
X114133333Y-65275714D01*
X114085714Y-65370952D01*
X114038095Y-65418571D01*
X113942857Y-65466190D01*
X113561904Y-65466190D01*
X115085714Y-65942380D02*
X114514285Y-65942380D01*
X114800000Y-65942380D02*
X114800000Y-64942380D01*
X114704761Y-65085238D01*
X114609523Y-65180476D01*
X114514285Y-65228095D01*
%TO.C,Q2*%
X107854761Y-88837619D02*
X107759523Y-88790000D01*
X107664285Y-88694761D01*
X107521428Y-88551904D01*
X107426190Y-88504285D01*
X107330952Y-88504285D01*
X107378571Y-88742380D02*
X107283333Y-88694761D01*
X107188095Y-88599523D01*
X107140476Y-88409047D01*
X107140476Y-88075714D01*
X107188095Y-87885238D01*
X107283333Y-87790000D01*
X107378571Y-87742380D01*
X107569047Y-87742380D01*
X107664285Y-87790000D01*
X107759523Y-87885238D01*
X107807142Y-88075714D01*
X107807142Y-88409047D01*
X107759523Y-88599523D01*
X107664285Y-88694761D01*
X107569047Y-88742380D01*
X107378571Y-88742380D01*
X108188095Y-87837619D02*
X108235714Y-87790000D01*
X108330952Y-87742380D01*
X108569047Y-87742380D01*
X108664285Y-87790000D01*
X108711904Y-87837619D01*
X108759523Y-87932857D01*
X108759523Y-88028095D01*
X108711904Y-88170952D01*
X108140476Y-88742380D01*
X108759523Y-88742380D01*
%TO.C,Q1*%
X137064761Y-75962619D02*
X136969523Y-75915000D01*
X136874285Y-75819761D01*
X136731428Y-75676904D01*
X136636190Y-75629285D01*
X136540952Y-75629285D01*
X136588571Y-75867380D02*
X136493333Y-75819761D01*
X136398095Y-75724523D01*
X136350476Y-75534047D01*
X136350476Y-75200714D01*
X136398095Y-75010238D01*
X136493333Y-74915000D01*
X136588571Y-74867380D01*
X136779047Y-74867380D01*
X136874285Y-74915000D01*
X136969523Y-75010238D01*
X137017142Y-75200714D01*
X137017142Y-75534047D01*
X136969523Y-75724523D01*
X136874285Y-75819761D01*
X136779047Y-75867380D01*
X136588571Y-75867380D01*
X137969523Y-75867380D02*
X137398095Y-75867380D01*
X137683809Y-75867380D02*
X137683809Y-74867380D01*
X137588571Y-75010238D01*
X137493333Y-75105476D01*
X137398095Y-75153095D01*
%TO.C,L1*%
X129373333Y-60732380D02*
X128897142Y-60732380D01*
X128897142Y-59732380D01*
X130230476Y-60732380D02*
X129659047Y-60732380D01*
X129944761Y-60732380D02*
X129944761Y-59732380D01*
X129849523Y-59875238D01*
X129754285Y-59970476D01*
X129659047Y-60018095D01*
%TO.C,J2*%
X162622380Y-76533333D02*
X163336666Y-76533333D01*
X163479523Y-76580952D01*
X163574761Y-76676190D01*
X163622380Y-76819047D01*
X163622380Y-76914285D01*
X162717619Y-76104761D02*
X162670000Y-76057142D01*
X162622380Y-75961904D01*
X162622380Y-75723809D01*
X162670000Y-75628571D01*
X162717619Y-75580952D01*
X162812857Y-75533333D01*
X162908095Y-75533333D01*
X163050952Y-75580952D01*
X163622380Y-76152380D01*
X163622380Y-75533333D01*
%TO.C,J1*%
X87742380Y-76533333D02*
X88456666Y-76533333D01*
X88599523Y-76580952D01*
X88694761Y-76676190D01*
X88742380Y-76819047D01*
X88742380Y-76914285D01*
X88742380Y-75533333D02*
X88742380Y-76104761D01*
X88742380Y-75819047D02*
X87742380Y-75819047D01*
X87885238Y-75914285D01*
X87980476Y-76009523D01*
X88028095Y-76104761D01*
%TO.C,D2*%
X146581904Y-71502380D02*
X146581904Y-70502380D01*
X146820000Y-70502380D01*
X146962857Y-70550000D01*
X147058095Y-70645238D01*
X147105714Y-70740476D01*
X147153333Y-70930952D01*
X147153333Y-71073809D01*
X147105714Y-71264285D01*
X147058095Y-71359523D01*
X146962857Y-71454761D01*
X146820000Y-71502380D01*
X146581904Y-71502380D01*
X147534285Y-70597619D02*
X147581904Y-70550000D01*
X147677142Y-70502380D01*
X147915238Y-70502380D01*
X148010476Y-70550000D01*
X148058095Y-70597619D01*
X148105714Y-70692857D01*
X148105714Y-70788095D01*
X148058095Y-70930952D01*
X147486666Y-71502380D01*
X148105714Y-71502380D01*
X152138095Y-70932380D02*
X152138095Y-69932380D01*
X152709523Y-70932380D02*
X152280952Y-70360952D01*
X152709523Y-69932380D02*
X152138095Y-70503809D01*
%TO.C,D1*%
X100861904Y-77992380D02*
X100861904Y-76992380D01*
X101100000Y-76992380D01*
X101242857Y-77040000D01*
X101338095Y-77135238D01*
X101385714Y-77230476D01*
X101433333Y-77420952D01*
X101433333Y-77563809D01*
X101385714Y-77754285D01*
X101338095Y-77849523D01*
X101242857Y-77944761D01*
X101100000Y-77992380D01*
X100861904Y-77992380D01*
X102385714Y-77992380D02*
X101814285Y-77992380D01*
X102100000Y-77992380D02*
X102100000Y-76992380D01*
X102004761Y-77135238D01*
X101909523Y-77230476D01*
X101814285Y-77278095D01*
X96258095Y-78562380D02*
X96258095Y-77562380D01*
X96829523Y-78562380D02*
X96400952Y-77990952D01*
X96829523Y-77562380D02*
X96258095Y-78133809D01*
%TO.C,C4*%
X124137142Y-86506666D02*
X124184761Y-86554285D01*
X124232380Y-86697142D01*
X124232380Y-86792380D01*
X124184761Y-86935238D01*
X124089523Y-87030476D01*
X123994285Y-87078095D01*
X123803809Y-87125714D01*
X123660952Y-87125714D01*
X123470476Y-87078095D01*
X123375238Y-87030476D01*
X123280000Y-86935238D01*
X123232380Y-86792380D01*
X123232380Y-86697142D01*
X123280000Y-86554285D01*
X123327619Y-86506666D01*
X123565714Y-85649523D02*
X124232380Y-85649523D01*
X123184761Y-85887619D02*
X123899047Y-86125714D01*
X123899047Y-85506666D01*
%TO.C,C3*%
X157157142Y-76346666D02*
X157204761Y-76394285D01*
X157252380Y-76537142D01*
X157252380Y-76632380D01*
X157204761Y-76775238D01*
X157109523Y-76870476D01*
X157014285Y-76918095D01*
X156823809Y-76965714D01*
X156680952Y-76965714D01*
X156490476Y-76918095D01*
X156395238Y-76870476D01*
X156300000Y-76775238D01*
X156252380Y-76632380D01*
X156252380Y-76537142D01*
X156300000Y-76394285D01*
X156347619Y-76346666D01*
X156252380Y-76013333D02*
X156252380Y-75394285D01*
X156633333Y-75727619D01*
X156633333Y-75584761D01*
X156680952Y-75489523D01*
X156728571Y-75441904D01*
X156823809Y-75394285D01*
X157061904Y-75394285D01*
X157157142Y-75441904D01*
X157204761Y-75489523D01*
X157252380Y-75584761D01*
X157252380Y-75870476D01*
X157204761Y-75965714D01*
X157157142Y-76013333D01*
%TO.C,C2*%
X100183333Y-87747142D02*
X100135714Y-87794761D01*
X99992857Y-87842380D01*
X99897619Y-87842380D01*
X99754761Y-87794761D01*
X99659523Y-87699523D01*
X99611904Y-87604285D01*
X99564285Y-87413809D01*
X99564285Y-87270952D01*
X99611904Y-87080476D01*
X99659523Y-86985238D01*
X99754761Y-86890000D01*
X99897619Y-86842380D01*
X99992857Y-86842380D01*
X100135714Y-86890000D01*
X100183333Y-86937619D01*
X100564285Y-86937619D02*
X100611904Y-86890000D01*
X100707142Y-86842380D01*
X100945238Y-86842380D01*
X101040476Y-86890000D01*
X101088095Y-86937619D01*
X101135714Y-87032857D01*
X101135714Y-87128095D01*
X101088095Y-87270952D01*
X100516666Y-87842380D01*
X101135714Y-87842380D01*
%TO.C,C1*%
X108207142Y-70646666D02*
X108254761Y-70694285D01*
X108302380Y-70837142D01*
X108302380Y-70932380D01*
X108254761Y-71075238D01*
X108159523Y-71170476D01*
X108064285Y-71218095D01*
X107873809Y-71265714D01*
X107730952Y-71265714D01*
X107540476Y-71218095D01*
X107445238Y-71170476D01*
X107350000Y-71075238D01*
X107302380Y-70932380D01*
X107302380Y-70837142D01*
X107350000Y-70694285D01*
X107397619Y-70646666D01*
X108302380Y-69694285D02*
X108302380Y-70265714D01*
X108302380Y-69980000D02*
X107302380Y-69980000D01*
X107445238Y-70075238D01*
X107540476Y-70170476D01*
X107588095Y-70265714D01*
D11*
%TO.C,U1*%
X116960000Y-69800000D02*
X115310000Y-69800000D01*
X111660000Y-69800000D02*
X111660000Y-80080000D01*
X116960000Y-80080000D02*
X116960000Y-69800000D01*
X113310000Y-69800000D02*
X111660000Y-69800000D01*
X111660000Y-80080000D02*
X116960000Y-80080000D01*
X113310000Y-69800000D02*
G75*
G03*
X115310000Y-69800000I1000000J0D01*
G01*
%TO.C,RV1*%
X144050000Y-84690000D02*
X144050000Y-87385000D01*
X148440000Y-87385000D02*
X146200000Y-87385000D01*
X150590000Y-87385000D02*
X144050000Y-87385000D01*
X148754000Y-83644000D02*
X145885000Y-83644000D01*
X148440000Y-83644000D02*
X148440000Y-87385000D01*
X146200000Y-83644000D02*
X146200000Y-87385000D01*
X148440000Y-83644000D02*
X146200000Y-83644000D01*
X150590000Y-84690000D02*
X150590000Y-87385000D01*
%TO.C,R5*%
X145700000Y-78120000D02*
X145700000Y-74280000D01*
X143860000Y-78120000D02*
X143860000Y-74280000D01*
%TO.C,R3*%
X136540000Y-85440000D02*
X132700000Y-85440000D01*
X136540000Y-87280000D02*
X132700000Y-87280000D01*
%TO.C,R2*%
X125080000Y-82200000D02*
X128920000Y-82200000D01*
X125080000Y-80360000D02*
X128920000Y-80360000D01*
%TO.C,R1*%
X113572936Y-66400000D02*
X115027064Y-66400000D01*
X113572936Y-68220000D02*
X115027064Y-68220000D01*
%TO.C,Q2*%
X109750000Y-82880000D02*
X106150000Y-82880000D01*
X106111522Y-82891522D02*
G75*
G03*
X107950000Y-87330000I1838478J-1838478D01*
G01*
X107950000Y-87330001D02*
G75*
G03*
X109788478Y-82891522I0J2600001D01*
G01*
%TO.C,Q1*%
X132040000Y-76415000D02*
X142280000Y-76415000D01*
X135310000Y-76415000D02*
X135310000Y-77925000D01*
X139011000Y-76415000D02*
X139011000Y-77925000D01*
X132040000Y-76415000D02*
X132040000Y-81056000D01*
X132040000Y-81056000D02*
X142280000Y-81056000D01*
X142280000Y-76415000D02*
X142280000Y-81056000D01*
X132040000Y-77925000D02*
X142280000Y-77925000D01*
%TO.C,L1*%
X138690000Y-71380000D02*
X133540000Y-74580000D01*
X125540000Y-74580000D02*
X120390000Y-71380000D01*
D10*
X120390000Y-65780000D02*
X125540000Y-62580000D01*
D11*
X133540000Y-62580000D02*
X138690000Y-65780000D01*
X133540000Y-62580000D02*
G75*
G03*
X125548396Y-62574411I-4000000J-5999999D01*
G01*
X125540000Y-74580000D02*
G75*
G03*
X133531604Y-74585589I4000000J5999999D01*
G01*
%TO.C,D2*%
X144600000Y-70050000D02*
X150040000Y-70050000D01*
X149260000Y-70050000D02*
X149260000Y-67110000D01*
X150040000Y-67110000D02*
X144600000Y-67110000D01*
X143380000Y-68580000D02*
X144600000Y-68580000D01*
X144600000Y-67110000D02*
X144600000Y-70050000D01*
X150040000Y-70050000D02*
X150040000Y-67110000D01*
X151260000Y-68580000D02*
X150040000Y-68580000D01*
X149020000Y-70050000D02*
X149020000Y-67110000D01*
X149140000Y-70050000D02*
X149140000Y-67110000D01*
%TO.C,D1*%
X104320000Y-78540000D02*
X98880000Y-78540000D01*
X99660000Y-78540000D02*
X99660000Y-81480000D01*
X98880000Y-81480000D02*
X104320000Y-81480000D01*
X105540000Y-80010000D02*
X104320000Y-80010000D01*
X104320000Y-81480000D02*
X104320000Y-78540000D01*
X98880000Y-78540000D02*
X98880000Y-81480000D01*
X97660000Y-80010000D02*
X98880000Y-80010000D01*
X99900000Y-78540000D02*
X99900000Y-81480000D01*
X99780000Y-78540000D02*
X99780000Y-81480000D01*
%TO.C,C4*%
X118340000Y-88341000D02*
X116832000Y-88341000D01*
X118340000Y-87821000D02*
X116504000Y-87821000D01*
X122427000Y-87421000D02*
X120420000Y-87421000D01*
X121270000Y-88981000D02*
X117490000Y-88981000D01*
X122511000Y-87141000D02*
X120420000Y-87141000D01*
X122610000Y-86420000D02*
X116150000Y-86420000D01*
X118340000Y-87221000D02*
X116270000Y-87221000D01*
X118340000Y-87341000D02*
X116306000Y-87341000D01*
X122610000Y-86380000D02*
X116150000Y-86380000D01*
X121214000Y-89021000D02*
X117546000Y-89021000D01*
X121375000Y-88901000D02*
X117385000Y-88901000D01*
X118340000Y-86900000D02*
X116198000Y-86900000D01*
X118340000Y-87941000D02*
X116568000Y-87941000D01*
X122236000Y-87861000D02*
X120420000Y-87861000D01*
X121685000Y-88621000D02*
X120420000Y-88621000D01*
X122562000Y-86900000D02*
X120420000Y-86900000D01*
X120182000Y-89501000D02*
X118578000Y-89501000D01*
X122608000Y-86460000D02*
X116152000Y-86460000D01*
X118340000Y-87981000D02*
X116590000Y-87981000D01*
X121219000Y-82839759D02*
X121219000Y-83469759D01*
X118340000Y-88061000D02*
X116638000Y-88061000D01*
X119782000Y-89581000D02*
X118978000Y-89581000D01*
X118340000Y-86980000D02*
X116213000Y-86980000D01*
X118340000Y-87581000D02*
X116394000Y-87581000D01*
X122192000Y-87941000D02*
X120420000Y-87941000D01*
X118340000Y-88101000D02*
X116664000Y-88101000D01*
X118340000Y-86860000D02*
X116191000Y-86860000D01*
X120889000Y-89221000D02*
X117871000Y-89221000D01*
X121604000Y-88701000D02*
X117156000Y-88701000D01*
X118340000Y-87501000D02*
X116362000Y-87501000D01*
X121864000Y-88421000D02*
X120420000Y-88421000D01*
X121030000Y-89141000D02*
X117730000Y-89141000D01*
X118340000Y-86940000D02*
X116205000Y-86940000D01*
X118340000Y-86620000D02*
X116162000Y-86620000D01*
X122044000Y-88181000D02*
X120420000Y-88181000D01*
X120812000Y-89261000D02*
X117948000Y-89261000D01*
X122581000Y-86780000D02*
X120420000Y-86780000D01*
X122214000Y-87901000D02*
X120420000Y-87901000D01*
X118340000Y-87141000D02*
X116249000Y-87141000D01*
X122602000Y-86580000D02*
X120420000Y-86580000D01*
X121796000Y-88501000D02*
X120420000Y-88501000D01*
X122070000Y-88141000D02*
X120420000Y-88141000D01*
X121156000Y-89061000D02*
X117604000Y-89061000D01*
X118340000Y-88221000D02*
X116744000Y-88221000D01*
X120013000Y-89541000D02*
X118747000Y-89541000D01*
X118340000Y-88621000D02*
X117075000Y-88621000D01*
X118340000Y-88301000D02*
X116802000Y-88301000D01*
X118340000Y-86660000D02*
X116165000Y-86660000D01*
X122350000Y-87621000D02*
X120420000Y-87621000D01*
X122595000Y-86660000D02*
X120420000Y-86660000D01*
X122170000Y-87981000D02*
X120420000Y-87981000D01*
X122332000Y-87661000D02*
X120420000Y-87661000D01*
X118340000Y-88021000D02*
X116614000Y-88021000D01*
X121517000Y-88781000D02*
X117243000Y-88781000D01*
X121987000Y-88261000D02*
X120420000Y-88261000D01*
X118340000Y-87101000D02*
X116239000Y-87101000D01*
X118340000Y-87621000D02*
X116410000Y-87621000D01*
X118340000Y-87741000D02*
X116464000Y-87741000D01*
X121424000Y-88861000D02*
X117336000Y-88861000D01*
X121472000Y-88821000D02*
X117288000Y-88821000D01*
X118340000Y-87661000D02*
X116428000Y-87661000D01*
X121723000Y-88581000D02*
X120420000Y-88581000D01*
X118340000Y-87301000D02*
X116294000Y-87301000D01*
X120730000Y-89301000D02*
X118030000Y-89301000D01*
X122530000Y-87061000D02*
X120420000Y-87061000D01*
X122314000Y-87701000D02*
X120420000Y-87701000D01*
X118340000Y-88581000D02*
X117037000Y-88581000D01*
X122398000Y-87501000D02*
X120420000Y-87501000D01*
X118340000Y-87861000D02*
X116524000Y-87861000D01*
X118340000Y-86820000D02*
X116185000Y-86820000D01*
X122490000Y-87221000D02*
X120420000Y-87221000D01*
X118340000Y-88261000D02*
X116773000Y-88261000D01*
X118340000Y-88501000D02*
X116964000Y-88501000D01*
X122413000Y-87461000D02*
X120420000Y-87461000D01*
X118340000Y-87061000D02*
X116230000Y-87061000D01*
X121534000Y-83154759D02*
X120904000Y-83154759D01*
X118340000Y-87901000D02*
X116546000Y-87901000D01*
X121094000Y-89101000D02*
X117666000Y-89101000D01*
X121760000Y-88541000D02*
X120420000Y-88541000D01*
X120961000Y-89181000D02*
X117799000Y-89181000D01*
X122555000Y-86940000D02*
X120420000Y-86940000D01*
X120439000Y-89421000D02*
X118321000Y-89421000D01*
X120320000Y-89461000D02*
X118440000Y-89461000D01*
X118340000Y-86780000D02*
X116179000Y-86780000D01*
X122276000Y-87781000D02*
X120420000Y-87781000D01*
X118340000Y-87381000D02*
X116319000Y-87381000D01*
X122569000Y-86860000D02*
X120420000Y-86860000D01*
X122539000Y-87020000D02*
X120420000Y-87020000D01*
X122478000Y-87261000D02*
X120420000Y-87261000D01*
X122610000Y-86340000D02*
X116150000Y-86340000D01*
X118340000Y-87181000D02*
X116259000Y-87181000D01*
X122146000Y-88021000D02*
X120420000Y-88021000D01*
X122501000Y-87181000D02*
X120420000Y-87181000D01*
X118340000Y-87461000D02*
X116347000Y-87461000D01*
X122521000Y-87101000D02*
X120420000Y-87101000D01*
X122598000Y-86620000D02*
X120420000Y-86620000D01*
X121830000Y-88461000D02*
X120420000Y-88461000D01*
X121645000Y-88661000D02*
X117115000Y-88661000D01*
X118340000Y-87781000D02*
X116484000Y-87781000D01*
X121958000Y-88301000D02*
X120420000Y-88301000D01*
X118340000Y-86580000D02*
X116158000Y-86580000D01*
X122466000Y-87301000D02*
X120420000Y-87301000D01*
X118340000Y-87261000D02*
X116282000Y-87261000D01*
X120545000Y-89381000D02*
X118215000Y-89381000D01*
X122016000Y-88221000D02*
X120420000Y-88221000D01*
X118340000Y-88381000D02*
X116864000Y-88381000D01*
X118340000Y-87421000D02*
X116333000Y-87421000D01*
X121562000Y-88741000D02*
X117198000Y-88741000D01*
X121324000Y-88941000D02*
X117436000Y-88941000D01*
X120642000Y-89341000D02*
X118118000Y-89341000D01*
X118340000Y-86740000D02*
X116174000Y-86740000D01*
X118340000Y-88541000D02*
X117000000Y-88541000D01*
X122122000Y-88061000D02*
X120420000Y-88061000D01*
X122547000Y-86980000D02*
X120420000Y-86980000D01*
X118340000Y-87701000D02*
X116446000Y-87701000D01*
X122607000Y-86500000D02*
X116153000Y-86500000D01*
X118340000Y-88421000D02*
X116896000Y-88421000D01*
X118340000Y-88141000D02*
X116690000Y-88141000D01*
X121928000Y-88341000D02*
X120420000Y-88341000D01*
X118340000Y-86700000D02*
X116169000Y-86700000D01*
X122256000Y-87821000D02*
X120420000Y-87821000D01*
X118340000Y-88181000D02*
X116716000Y-88181000D01*
X122586000Y-86740000D02*
X120420000Y-86740000D01*
X121896000Y-88381000D02*
X120420000Y-88381000D01*
X122366000Y-87581000D02*
X120420000Y-87581000D01*
X122454000Y-87341000D02*
X120420000Y-87341000D01*
X122441000Y-87381000D02*
X120420000Y-87381000D01*
X122591000Y-86700000D02*
X120420000Y-86700000D01*
X122382000Y-87541000D02*
X120420000Y-87541000D01*
X118340000Y-87541000D02*
X116378000Y-87541000D01*
X122575000Y-86820000D02*
X120420000Y-86820000D01*
X122296000Y-87741000D02*
X120420000Y-87741000D01*
X118340000Y-87020000D02*
X116221000Y-87020000D01*
X118340000Y-88461000D02*
X116930000Y-88461000D01*
X122096000Y-88101000D02*
X120420000Y-88101000D01*
X122604000Y-86540000D02*
X116156000Y-86540000D01*
X122650000Y-86340000D02*
G75*
G03*
X122650000Y-86340000I-3270000J0D01*
G01*
%TO.C,C3*%
X151360000Y-78181000D02*
X149852000Y-78181000D01*
X151360000Y-77661000D02*
X149524000Y-77661000D01*
X155447000Y-77261000D02*
X153440000Y-77261000D01*
X154290000Y-78821000D02*
X150510000Y-78821000D01*
X155531000Y-76981000D02*
X153440000Y-76981000D01*
X155630000Y-76260000D02*
X149170000Y-76260000D01*
X151360000Y-77061000D02*
X149290000Y-77061000D01*
X151360000Y-77181000D02*
X149326000Y-77181000D01*
X155630000Y-76220000D02*
X149170000Y-76220000D01*
X154234000Y-78861000D02*
X150566000Y-78861000D01*
X154395000Y-78741000D02*
X150405000Y-78741000D01*
X151360000Y-76740000D02*
X149218000Y-76740000D01*
X151360000Y-77781000D02*
X149588000Y-77781000D01*
X155256000Y-77701000D02*
X153440000Y-77701000D01*
X154705000Y-78461000D02*
X153440000Y-78461000D01*
X155582000Y-76740000D02*
X153440000Y-76740000D01*
X153202000Y-79341000D02*
X151598000Y-79341000D01*
X155628000Y-76300000D02*
X149172000Y-76300000D01*
X151360000Y-77821000D02*
X149610000Y-77821000D01*
X154239000Y-72679759D02*
X154239000Y-73309759D01*
X151360000Y-77901000D02*
X149658000Y-77901000D01*
X152802000Y-79421000D02*
X151998000Y-79421000D01*
X151360000Y-76820000D02*
X149233000Y-76820000D01*
X151360000Y-77421000D02*
X149414000Y-77421000D01*
X155212000Y-77781000D02*
X153440000Y-77781000D01*
X151360000Y-77941000D02*
X149684000Y-77941000D01*
X151360000Y-76700000D02*
X149211000Y-76700000D01*
X153909000Y-79061000D02*
X150891000Y-79061000D01*
X154624000Y-78541000D02*
X150176000Y-78541000D01*
X151360000Y-77341000D02*
X149382000Y-77341000D01*
X154884000Y-78261000D02*
X153440000Y-78261000D01*
X154050000Y-78981000D02*
X150750000Y-78981000D01*
X151360000Y-76780000D02*
X149225000Y-76780000D01*
X151360000Y-76460000D02*
X149182000Y-76460000D01*
X155064000Y-78021000D02*
X153440000Y-78021000D01*
X153832000Y-79101000D02*
X150968000Y-79101000D01*
X155601000Y-76620000D02*
X153440000Y-76620000D01*
X155234000Y-77741000D02*
X153440000Y-77741000D01*
X151360000Y-76981000D02*
X149269000Y-76981000D01*
X155622000Y-76420000D02*
X153440000Y-76420000D01*
X154816000Y-78341000D02*
X153440000Y-78341000D01*
X155090000Y-77981000D02*
X153440000Y-77981000D01*
X154176000Y-78901000D02*
X150624000Y-78901000D01*
X151360000Y-78061000D02*
X149764000Y-78061000D01*
X153033000Y-79381000D02*
X151767000Y-79381000D01*
X151360000Y-78461000D02*
X150095000Y-78461000D01*
X151360000Y-78141000D02*
X149822000Y-78141000D01*
X151360000Y-76500000D02*
X149185000Y-76500000D01*
X155370000Y-77461000D02*
X153440000Y-77461000D01*
X155615000Y-76500000D02*
X153440000Y-76500000D01*
X155190000Y-77821000D02*
X153440000Y-77821000D01*
X155352000Y-77501000D02*
X153440000Y-77501000D01*
X151360000Y-77861000D02*
X149634000Y-77861000D01*
X154537000Y-78621000D02*
X150263000Y-78621000D01*
X155007000Y-78101000D02*
X153440000Y-78101000D01*
X151360000Y-76941000D02*
X149259000Y-76941000D01*
X151360000Y-77461000D02*
X149430000Y-77461000D01*
X151360000Y-77581000D02*
X149484000Y-77581000D01*
X154444000Y-78701000D02*
X150356000Y-78701000D01*
X154492000Y-78661000D02*
X150308000Y-78661000D01*
X151360000Y-77501000D02*
X149448000Y-77501000D01*
X154743000Y-78421000D02*
X153440000Y-78421000D01*
X151360000Y-77141000D02*
X149314000Y-77141000D01*
X153750000Y-79141000D02*
X151050000Y-79141000D01*
X155550000Y-76901000D02*
X153440000Y-76901000D01*
X155334000Y-77541000D02*
X153440000Y-77541000D01*
X151360000Y-78421000D02*
X150057000Y-78421000D01*
X155418000Y-77341000D02*
X153440000Y-77341000D01*
X151360000Y-77701000D02*
X149544000Y-77701000D01*
X151360000Y-76660000D02*
X149205000Y-76660000D01*
X155510000Y-77061000D02*
X153440000Y-77061000D01*
X151360000Y-78101000D02*
X149793000Y-78101000D01*
X151360000Y-78341000D02*
X149984000Y-78341000D01*
X155433000Y-77301000D02*
X153440000Y-77301000D01*
X151360000Y-76901000D02*
X149250000Y-76901000D01*
X154554000Y-72994759D02*
X153924000Y-72994759D01*
X151360000Y-77741000D02*
X149566000Y-77741000D01*
X154114000Y-78941000D02*
X150686000Y-78941000D01*
X154780000Y-78381000D02*
X153440000Y-78381000D01*
X153981000Y-79021000D02*
X150819000Y-79021000D01*
X155575000Y-76780000D02*
X153440000Y-76780000D01*
X153459000Y-79261000D02*
X151341000Y-79261000D01*
X153340000Y-79301000D02*
X151460000Y-79301000D01*
X151360000Y-76620000D02*
X149199000Y-76620000D01*
X155296000Y-77621000D02*
X153440000Y-77621000D01*
X151360000Y-77221000D02*
X149339000Y-77221000D01*
X155589000Y-76700000D02*
X153440000Y-76700000D01*
X155559000Y-76860000D02*
X153440000Y-76860000D01*
X155498000Y-77101000D02*
X153440000Y-77101000D01*
X155630000Y-76180000D02*
X149170000Y-76180000D01*
X151360000Y-77021000D02*
X149279000Y-77021000D01*
X155166000Y-77861000D02*
X153440000Y-77861000D01*
X155521000Y-77021000D02*
X153440000Y-77021000D01*
X151360000Y-77301000D02*
X149367000Y-77301000D01*
X155541000Y-76941000D02*
X153440000Y-76941000D01*
X155618000Y-76460000D02*
X153440000Y-76460000D01*
X154850000Y-78301000D02*
X153440000Y-78301000D01*
X154665000Y-78501000D02*
X150135000Y-78501000D01*
X151360000Y-77621000D02*
X149504000Y-77621000D01*
X154978000Y-78141000D02*
X153440000Y-78141000D01*
X151360000Y-76420000D02*
X149178000Y-76420000D01*
X155486000Y-77141000D02*
X153440000Y-77141000D01*
X151360000Y-77101000D02*
X149302000Y-77101000D01*
X153565000Y-79221000D02*
X151235000Y-79221000D01*
X155036000Y-78061000D02*
X153440000Y-78061000D01*
X151360000Y-78221000D02*
X149884000Y-78221000D01*
X151360000Y-77261000D02*
X149353000Y-77261000D01*
X154582000Y-78581000D02*
X150218000Y-78581000D01*
X154344000Y-78781000D02*
X150456000Y-78781000D01*
X153662000Y-79181000D02*
X151138000Y-79181000D01*
X151360000Y-76580000D02*
X149194000Y-76580000D01*
X151360000Y-78381000D02*
X150020000Y-78381000D01*
X155142000Y-77901000D02*
X153440000Y-77901000D01*
X155567000Y-76820000D02*
X153440000Y-76820000D01*
X151360000Y-77541000D02*
X149466000Y-77541000D01*
X155627000Y-76340000D02*
X149173000Y-76340000D01*
X151360000Y-78261000D02*
X149916000Y-78261000D01*
X151360000Y-77981000D02*
X149710000Y-77981000D01*
X154948000Y-78181000D02*
X153440000Y-78181000D01*
X151360000Y-76540000D02*
X149189000Y-76540000D01*
X155276000Y-77661000D02*
X153440000Y-77661000D01*
X151360000Y-78021000D02*
X149736000Y-78021000D01*
X155606000Y-76580000D02*
X153440000Y-76580000D01*
X154916000Y-78221000D02*
X153440000Y-78221000D01*
X155386000Y-77421000D02*
X153440000Y-77421000D01*
X155474000Y-77181000D02*
X153440000Y-77181000D01*
X155461000Y-77221000D02*
X153440000Y-77221000D01*
X155611000Y-76540000D02*
X153440000Y-76540000D01*
X155402000Y-77381000D02*
X153440000Y-77381000D01*
X151360000Y-77381000D02*
X149398000Y-77381000D01*
X155595000Y-76660000D02*
X153440000Y-76660000D01*
X155316000Y-77581000D02*
X153440000Y-77581000D01*
X151360000Y-76860000D02*
X149241000Y-76860000D01*
X151360000Y-78301000D02*
X149950000Y-78301000D01*
X155116000Y-77941000D02*
X153440000Y-77941000D01*
X155624000Y-76380000D02*
X149176000Y-76380000D01*
X155670000Y-76180000D02*
G75*
G03*
X155670000Y-76180000I-3270000J0D01*
G01*
%TO.C,C2*%
X102170000Y-86260000D02*
X98530000Y-86260000D01*
X102170000Y-83920000D02*
X98530000Y-83920000D01*
X102170000Y-84165000D02*
X102170000Y-83920000D01*
X98530000Y-84165000D02*
X98530000Y-83920000D01*
X98530000Y-86260000D02*
X98530000Y-86015000D01*
X102170000Y-86260000D02*
X102170000Y-86015000D01*
%TO.C,C1*%
X104706000Y-74521000D02*
X98494000Y-74521000D01*
X105620000Y-73601000D02*
X102841000Y-73601000D01*
X100359000Y-73281000D02*
X97353000Y-73281000D01*
X106645000Y-71080000D02*
X96555000Y-71080000D01*
X100359000Y-73121000D02*
X97253000Y-73121000D01*
X100359000Y-72721000D02*
X97036000Y-72721000D01*
X106597000Y-71401000D02*
X102841000Y-71401000D01*
X106184000Y-72681000D02*
X102841000Y-72681000D01*
X105995000Y-73041000D02*
X102841000Y-73041000D01*
X106635000Y-71160000D02*
X102841000Y-71160000D01*
X104947000Y-74321000D02*
X98253000Y-74321000D01*
X100359000Y-71481000D02*
X96618000Y-71481000D01*
X104179000Y-74881000D02*
X99021000Y-74881000D01*
X100359000Y-72801000D02*
X97075000Y-72801000D01*
X100359000Y-72681000D02*
X97016000Y-72681000D01*
X106624000Y-71241000D02*
X102841000Y-71241000D01*
X106354000Y-72281000D02*
X102841000Y-72281000D01*
X106678000Y-70640000D02*
X96522000Y-70640000D01*
X103965000Y-75001000D02*
X99235000Y-75001000D01*
X106665000Y-70880000D02*
X96535000Y-70880000D01*
X100359000Y-71241000D02*
X96576000Y-71241000D01*
X100359000Y-73521000D02*
X97520000Y-73521000D01*
X104901000Y-74361000D02*
X98299000Y-74361000D01*
X105794000Y-73361000D02*
X102841000Y-73361000D01*
X105766000Y-73401000D02*
X102841000Y-73401000D01*
X104756000Y-74481000D02*
X98444000Y-74481000D01*
X100359000Y-72961000D02*
X97160000Y-72961000D01*
X106338000Y-72321000D02*
X102841000Y-72321000D01*
X104975000Y-65500354D02*
X103975000Y-65500354D01*
X105120000Y-74161000D02*
X98080000Y-74161000D01*
X100359000Y-72401000D02*
X96893000Y-72401000D01*
X106654000Y-71000000D02*
X96546000Y-71000000D01*
X100359000Y-72481000D02*
X96926000Y-72481000D01*
X100359000Y-72121000D02*
X96789000Y-72121000D01*
X100359000Y-72321000D02*
X96862000Y-72321000D01*
X105710000Y-73481000D02*
X102841000Y-73481000D01*
X100359000Y-71801000D02*
X96693000Y-71801000D01*
X106104000Y-72841000D02*
X102841000Y-72841000D01*
X102978000Y-75401000D02*
X100222000Y-75401000D01*
X100359000Y-72761000D02*
X97055000Y-72761000D01*
X100359000Y-73561000D02*
X97550000Y-73561000D01*
X100359000Y-71361000D02*
X96596000Y-71361000D01*
X105680000Y-73521000D02*
X102841000Y-73521000D01*
X104854000Y-74401000D02*
X98346000Y-74401000D01*
X106618000Y-71281000D02*
X102841000Y-71281000D01*
X106474000Y-71921000D02*
X102841000Y-71921000D01*
X106675000Y-70720000D02*
X96525000Y-70720000D01*
X104245000Y-74841000D02*
X98955000Y-74841000D01*
X106670000Y-70800000D02*
X96530000Y-70800000D01*
X104430000Y-74721000D02*
X98770000Y-74721000D01*
X100359000Y-71441000D02*
X96610000Y-71441000D01*
X100359000Y-71721000D02*
X96672000Y-71721000D01*
X100359000Y-73361000D02*
X97406000Y-73361000D01*
X106538000Y-71681000D02*
X102841000Y-71681000D01*
X103637000Y-75161000D02*
X99563000Y-75161000D01*
X106662000Y-70920000D02*
X96538000Y-70920000D01*
X100359000Y-71601000D02*
X96644000Y-71601000D01*
X106630000Y-71201000D02*
X102841000Y-71201000D01*
X104110000Y-74921000D02*
X99090000Y-74921000D01*
X100359000Y-71961000D02*
X96738000Y-71961000D01*
X103889000Y-75041000D02*
X99311000Y-75041000D01*
X106062000Y-72921000D02*
X102841000Y-72921000D01*
X106658000Y-70960000D02*
X96542000Y-70960000D01*
X106462000Y-71961000D02*
X102841000Y-71961000D01*
X100359000Y-71281000D02*
X96582000Y-71281000D01*
X103230000Y-75321000D02*
X99970000Y-75321000D01*
X106668000Y-70840000D02*
X96532000Y-70840000D01*
X100359000Y-72361000D02*
X96877000Y-72361000D01*
X100359000Y-71881000D02*
X96715000Y-71881000D01*
X106611000Y-71321000D02*
X102841000Y-71321000D01*
X105525000Y-73721000D02*
X97675000Y-73721000D01*
X105201000Y-74081000D02*
X97999000Y-74081000D01*
X100359000Y-72841000D02*
X97096000Y-72841000D01*
X100359000Y-71401000D02*
X96603000Y-71401000D01*
X100359000Y-71561000D02*
X96635000Y-71561000D01*
X105589000Y-73641000D02*
X97611000Y-73641000D01*
X100359000Y-71921000D02*
X96726000Y-71921000D01*
X106239000Y-72561000D02*
X102841000Y-72561000D01*
X100359000Y-71201000D02*
X96570000Y-71201000D01*
X105821000Y-73321000D02*
X102841000Y-73321000D01*
X106145000Y-72761000D02*
X102841000Y-72761000D01*
X105389000Y-73881000D02*
X97811000Y-73881000D01*
X106437000Y-72041000D02*
X102841000Y-72041000D01*
X100359000Y-71641000D02*
X96653000Y-71641000D01*
X104370000Y-74761000D02*
X98830000Y-74761000D01*
X106680000Y-70520000D02*
X96520000Y-70520000D01*
X106203000Y-72641000D02*
X102841000Y-72641000D01*
X100359000Y-73401000D02*
X97434000Y-73401000D01*
X100359000Y-73161000D02*
X97277000Y-73161000D01*
X100359000Y-72041000D02*
X96763000Y-72041000D01*
X106257000Y-72521000D02*
X102841000Y-72521000D01*
X105947000Y-73121000D02*
X102841000Y-73121000D01*
X106679000Y-70600000D02*
X96521000Y-70600000D01*
X105923000Y-73161000D02*
X102841000Y-73161000D01*
X106397000Y-72161000D02*
X102841000Y-72161000D01*
X106411000Y-72121000D02*
X102841000Y-72121000D01*
X103110000Y-75361000D02*
X100090000Y-75361000D01*
X102662000Y-75481000D02*
X100538000Y-75481000D01*
X106677000Y-70680000D02*
X96523000Y-70680000D01*
X102199000Y-75561000D02*
X101001000Y-75561000D01*
X100359000Y-71681000D02*
X96662000Y-71681000D01*
X105316000Y-73961000D02*
X97884000Y-73961000D01*
X100359000Y-71841000D02*
X96703000Y-71841000D01*
X104309000Y-74801000D02*
X98891000Y-74801000D01*
X106604000Y-71361000D02*
X102841000Y-71361000D01*
X100359000Y-73001000D02*
X97183000Y-73001000D01*
X105240000Y-74041000D02*
X97960000Y-74041000D01*
X106221000Y-72601000D02*
X102841000Y-72601000D01*
X103809000Y-75081000D02*
X99391000Y-75081000D01*
X105078000Y-74201000D02*
X98122000Y-74201000D01*
X106640000Y-71120000D02*
X96560000Y-71120000D01*
X100359000Y-72241000D02*
X96832000Y-72241000D01*
X106673000Y-70760000D02*
X96527000Y-70760000D01*
X100359000Y-73041000D02*
X97205000Y-73041000D01*
X100359000Y-72281000D02*
X96846000Y-72281000D01*
X106507000Y-71801000D02*
X102841000Y-71801000D01*
X100359000Y-72081000D02*
X96776000Y-72081000D01*
X106497000Y-71841000D02*
X102841000Y-71841000D01*
X106680000Y-70560000D02*
X96520000Y-70560000D01*
X102830000Y-75441000D02*
X100370000Y-75441000D01*
X105898000Y-73201000D02*
X102841000Y-73201000D01*
X105458000Y-73801000D02*
X97742000Y-73801000D01*
X100359000Y-72921000D02*
X97138000Y-72921000D01*
X104489000Y-74681000D02*
X98711000Y-74681000D01*
X100359000Y-72001000D02*
X96750000Y-72001000D01*
X106574000Y-71521000D02*
X102841000Y-71521000D01*
X106323000Y-72361000D02*
X102841000Y-72361000D01*
X100359000Y-72561000D02*
X96961000Y-72561000D01*
X106125000Y-72801000D02*
X102841000Y-72801000D01*
X104654000Y-74561000D02*
X98546000Y-74561000D01*
X106680000Y-70480000D02*
X96520000Y-70480000D01*
X104475000Y-65000354D02*
X104475000Y-66000354D01*
X105161000Y-74121000D02*
X98039000Y-74121000D01*
X104806000Y-74441000D02*
X98394000Y-74441000D01*
X104992000Y-74281000D02*
X98208000Y-74281000D01*
X103725000Y-75121000D02*
X99475000Y-75121000D01*
X100359000Y-71761000D02*
X96682000Y-71761000D01*
X100359000Y-72601000D02*
X96979000Y-72601000D01*
X102462000Y-75521000D02*
X100738000Y-75521000D01*
X105971000Y-73081000D02*
X102841000Y-73081000D01*
X100359000Y-73201000D02*
X97302000Y-73201000D01*
X104600000Y-74601000D02*
X98600000Y-74601000D01*
X105036000Y-74241000D02*
X98164000Y-74241000D01*
X105492000Y-73761000D02*
X97708000Y-73761000D01*
X106556000Y-71601000D02*
X102841000Y-71601000D01*
X106307000Y-72401000D02*
X102841000Y-72401000D01*
X105873000Y-73241000D02*
X102841000Y-73241000D01*
X103544000Y-75201000D02*
X99656000Y-75201000D01*
X100359000Y-72881000D02*
X97117000Y-72881000D01*
X105847000Y-73281000D02*
X102841000Y-73281000D01*
X106528000Y-71721000D02*
X102841000Y-71721000D01*
X104039000Y-74961000D02*
X99161000Y-74961000D01*
X100359000Y-72161000D02*
X96803000Y-72161000D01*
X100359000Y-72521000D02*
X96943000Y-72521000D01*
X105279000Y-74001000D02*
X97921000Y-74001000D01*
X103446000Y-75241000D02*
X99754000Y-75241000D01*
X100359000Y-73601000D02*
X97580000Y-73601000D01*
X106368000Y-72241000D02*
X102841000Y-72241000D01*
X100359000Y-71160000D02*
X96565000Y-71160000D01*
X106274000Y-72481000D02*
X102841000Y-72481000D01*
X106383000Y-72201000D02*
X102841000Y-72201000D01*
X106582000Y-71481000D02*
X102841000Y-71481000D01*
X100359000Y-71521000D02*
X96626000Y-71521000D01*
X106040000Y-72961000D02*
X102841000Y-72961000D01*
X100359000Y-72441000D02*
X96910000Y-72441000D01*
X104545000Y-74641000D02*
X98655000Y-74641000D01*
X106485000Y-71881000D02*
X102841000Y-71881000D01*
X100359000Y-72641000D02*
X96997000Y-72641000D01*
X100359000Y-72201000D02*
X96817000Y-72201000D01*
X106450000Y-72001000D02*
X102841000Y-72001000D01*
X106017000Y-73001000D02*
X102841000Y-73001000D01*
X106424000Y-72081000D02*
X102841000Y-72081000D01*
X106083000Y-72881000D02*
X102841000Y-72881000D01*
X103342000Y-75281000D02*
X99858000Y-75281000D01*
X105557000Y-73681000D02*
X97643000Y-73681000D01*
X100359000Y-73321000D02*
X97379000Y-73321000D01*
X106565000Y-71561000D02*
X102841000Y-71561000D01*
X106590000Y-71441000D02*
X102841000Y-71441000D01*
X106518000Y-71761000D02*
X102841000Y-71761000D01*
X106650000Y-71040000D02*
X96550000Y-71040000D01*
X105353000Y-73921000D02*
X97847000Y-73921000D01*
X106290000Y-72441000D02*
X102841000Y-72441000D01*
X105738000Y-73441000D02*
X102841000Y-73441000D01*
X100359000Y-73441000D02*
X97462000Y-73441000D01*
X100359000Y-73241000D02*
X97327000Y-73241000D01*
X106547000Y-71641000D02*
X102841000Y-71641000D01*
X100359000Y-73081000D02*
X97229000Y-73081000D01*
X100359000Y-73481000D02*
X97490000Y-73481000D01*
X100359000Y-71321000D02*
X96589000Y-71321000D01*
X105424000Y-73841000D02*
X97776000Y-73841000D01*
X105650000Y-73561000D02*
X102841000Y-73561000D01*
X106164000Y-72721000D02*
X102841000Y-72721000D01*
X106720000Y-70480000D02*
G75*
G03*
X106720000Y-70480000I-5120000J0D01*
G01*
%TD*%
%LPC*%
D12*
%TO.C,U1*%
X110500000Y-71130000D03*
D13*
X110500000Y-73670000D03*
X110500000Y-76210000D03*
X110500000Y-78750000D03*
X118120000Y-78750000D03*
X118120000Y-76210000D03*
X118120000Y-73670000D03*
X118120000Y-71130000D03*
%TD*%
D14*
%TO.C,RV1*%
X149820000Y-83765000D03*
X147320000Y-86265000D03*
X144820000Y-83765000D03*
%TD*%
D15*
%TO.C,R5*%
X144780000Y-78740000D03*
D16*
X144780000Y-73660000D03*
%TD*%
D15*
%TO.C,R3*%
X137160000Y-86360000D03*
D16*
X132080000Y-86360000D03*
%TD*%
D15*
%TO.C,R2*%
X124460000Y-81280000D03*
D16*
X129540000Y-81280000D03*
%TD*%
D17*
%TO.C,R1*%
X112750000Y-67310000D03*
X115850000Y-67310000D03*
%TD*%
D18*
%TO.C,Q2*%
X109220000Y-84730000D03*
D19*
X107950000Y-84730000D03*
X106680000Y-84730000D03*
%TD*%
D20*
%TO.C,Q1*%
X134620000Y-79685000D03*
D21*
X137160000Y-79685000D03*
X139700000Y-79685000D03*
%TD*%
D22*
%TO.C,L1*%
X121690000Y-68580000D03*
X137390000Y-68580000D03*
%TD*%
D23*
%TO.C,J2*%
X160020000Y-72300000D03*
D24*
X160020000Y-80100000D03*
%TD*%
D25*
%TO.C,J1*%
X91440000Y-80100000D03*
D24*
X91440000Y-72300000D03*
%TD*%
D26*
%TO.C,D2*%
X152400000Y-68580000D03*
D27*
X142240000Y-68580000D03*
%TD*%
D26*
%TO.C,D1*%
X96520000Y-80010000D03*
D27*
X106680000Y-80010000D03*
%TD*%
D12*
%TO.C,C4*%
X119380000Y-85090000D03*
D28*
X119380000Y-87590000D03*
%TD*%
D12*
%TO.C,C3*%
X152400000Y-74930000D03*
D28*
X152400000Y-77430000D03*
%TD*%
%TO.C,C2*%
X101600000Y-85090000D03*
X99100000Y-85090000D03*
%TD*%
D29*
%TO.C,C1*%
X101600000Y-68580000D03*
D30*
X101600000Y-72380000D03*
%TD*%
M02*
