%TF.GenerationSoftware,KiCad,Pcbnew,(6.0.1)*%
%TF.CreationDate,2022-12-28T21:20:28+01:00*%
%TF.ProjectId,nixie_power_supply,6e697869-655f-4706-9f77-65725f737570,rev?*%
%TF.SameCoordinates,Original*%
%TF.FileFunction,Soldermask,Bot*%
%TF.FilePolarity,Negative*%
%FSLAX46Y46*%
G04 Gerber Fmt 4.6, Leading zero omitted, Abs format (unit mm)*
G04 Created by KiCad (PCBNEW (6.0.1)) date 2022-12-28 21:20:28*
%MOMM*%
%LPD*%
G01*
G04 APERTURE LIST*
G04 Aperture macros list*
%AMRoundRect*
0 Rectangle with rounded corners*
0 $1 Rounding radius*
0 $2 $3 $4 $5 $6 $7 $8 $9 X,Y pos of 4 corners*
0 Add a 4 corners polygon primitive as box body*
4,1,4,$2,$3,$4,$5,$6,$7,$8,$9,$2,$3,0*
0 Add four circle primitives for the rounded corners*
1,1,$1+$1,$2,$3*
1,1,$1+$1,$4,$5*
1,1,$1+$1,$6,$7*
1,1,$1+$1,$8,$9*
0 Add four rect primitives between the rounded corners*
20,1,$1+$1,$2,$3,$4,$5,0*
20,1,$1+$1,$4,$5,$6,$7,0*
20,1,$1+$1,$6,$7,$8,$9,0*
20,1,$1+$1,$8,$9,$2,$3,0*%
G04 Aperture macros list end*
%ADD10R,1.600000X1.600000*%
%ADD11O,1.600000X1.600000*%
%ADD12C,1.620000*%
%ADD13C,1.400000*%
%ADD14O,1.400000X1.400000*%
%ADD15R,1.050000X1.500000*%
%ADD16O,1.050000X1.500000*%
%ADD17R,1.905000X2.000000*%
%ADD18O,1.905000X2.000000*%
%ADD19RoundRect,0.250002X-1.699998X1.699998X-1.699998X-1.699998X1.699998X-1.699998X1.699998X1.699998X0*%
%ADD20C,3.900000*%
%ADD21RoundRect,0.250002X1.699998X-1.699998X1.699998X1.699998X-1.699998X1.699998X-1.699998X-1.699998X0*%
%ADD22R,1.800000X1.800000*%
%ADD23O,1.800000X1.800000*%
%ADD24C,1.600000*%
%ADD25R,2.000000X2.000000*%
%ADD26C,2.000000*%
G04 APERTURE END LIST*
D10*
%TO.C,U1*%
X110500000Y-71130000D03*
D11*
X110500000Y-73670000D03*
X110500000Y-76210000D03*
X110500000Y-78750000D03*
X118120000Y-78750000D03*
X118120000Y-76210000D03*
X118120000Y-73670000D03*
X118120000Y-71130000D03*
%TD*%
D12*
%TO.C,RV1*%
X149820000Y-83765000D03*
X147320000Y-86265000D03*
X144820000Y-83765000D03*
%TD*%
D13*
%TO.C,R5*%
X144780000Y-78740000D03*
D14*
X144780000Y-73660000D03*
%TD*%
D13*
%TO.C,R3*%
X137160000Y-86360000D03*
D14*
X132080000Y-86360000D03*
%TD*%
D13*
%TO.C,R2*%
X124460000Y-81280000D03*
D14*
X129540000Y-81280000D03*
%TD*%
D15*
%TO.C,Q2*%
X109220000Y-84730000D03*
D16*
X107950000Y-84730000D03*
X106680000Y-84730000D03*
%TD*%
D17*
%TO.C,Q1*%
X134620000Y-79685000D03*
D18*
X137160000Y-79685000D03*
X139700000Y-79685000D03*
%TD*%
D19*
%TO.C,J2*%
X160020000Y-72300000D03*
D20*
X160020000Y-80100000D03*
%TD*%
D21*
%TO.C,J1*%
X91440000Y-80100000D03*
D20*
X91440000Y-72300000D03*
%TD*%
D22*
%TO.C,D2*%
X152400000Y-68580000D03*
D23*
X142240000Y-68580000D03*
%TD*%
D22*
%TO.C,D1*%
X96520000Y-80010000D03*
D23*
X106680000Y-80010000D03*
%TD*%
D10*
%TO.C,C4*%
X119380000Y-85090000D03*
D24*
X119380000Y-87590000D03*
%TD*%
D10*
%TO.C,C3*%
X152400000Y-74930000D03*
D24*
X152400000Y-77430000D03*
%TD*%
%TO.C,C2*%
X101600000Y-85090000D03*
X99100000Y-85090000D03*
%TD*%
D25*
%TO.C,C1*%
X101600000Y-68580000D03*
D26*
X101600000Y-72380000D03*
%TD*%
M02*
